REM DIRINDEX 1\2\4,1\2\5,1\2\6,1\2\7,1\3\8,1\3\9
REM DIRNAME folder01,folder02,folder03,folder04,folder05,folder06,folder07,folder08,folder09
TITLE ""
FILE "Disc2Track15.mp3" MP3
  TRACK 01 AUDIO
    TITLE "0:"
    INDEX 01 00:00:00
  TRACK 02 AUDIO
    TITLE "8:cjc037_1381"
    INDEX 01 00:00:05
  TRACK 03 AUDIO
    TITLE "0:"
    INDEX 01 00:01:56
  TRACK 04 AUDIO
    TITLE "9:cjc037_1382"
    INDEX 01 00:01:62
  TRACK 05 AUDIO
    TITLE "0:"
    INDEX 01 00:04:23
  TRACK 06 AUDIO
    TITLE "8:cjc037_1383"
    INDEX 01 00:06:55
  TRACK 07 AUDIO
    TITLE "0:"
    INDEX 01 00:08:42
  TRACK 08 AUDIO
    TITLE "9:cjc037_1384"
    INDEX 01 00:08:46
  TRACK 09 AUDIO
    TITLE "0:"
    INDEX 01 00:10:49
  TRACK 10 AUDIO
    TITLE "8:cjc037_1385"
    INDEX 01 00:13:10
  TRACK 11 AUDIO
    TITLE "0:"
    INDEX 01 00:14:62
  TRACK 12 AUDIO
    TITLE "9:cjc037_1386"
    INDEX 01 00:14:68
  TRACK 13 AUDIO
    TITLE "0:"
    INDEX 01 00:16:48
  TRACK 14 AUDIO
    TITLE "8:cjc037_1387"
    INDEX 01 00:19:09
  TRACK 15 AUDIO
    TITLE "0:"
    INDEX 01 00:20:59
  TRACK 16 AUDIO
    TITLE "9:cjc037_1388"
    INDEX 01 00:20:65
  TRACK 17 AUDIO
    TITLE "0:"
    INDEX 01 00:22:60
  TRACK 18 AUDIO
    TITLE "8:cjc037_1389"
    INDEX 01 00:25:21
  TRACK 19 AUDIO
    TITLE "0:"
    INDEX 01 00:26:48
  TRACK 20 AUDIO
    TITLE "9:cjc037_1390"
    INDEX 01 00:26:56
  TRACK 21 AUDIO
    TITLE "0:"
    INDEX 01 00:29:13
  TRACK 22 AUDIO
    TITLE "8:cjc037_1391"
    INDEX 01 00:31:49
  TRACK 23 AUDIO
    TITLE "0:"
    INDEX 01 00:33:11
  TRACK 24 AUDIO
    TITLE "9:cjc037_1392"
    INDEX 01 00:33:17
  TRACK 25 AUDIO
    TITLE "0:"
    INDEX 01 00:36:03
  TRACK 26 AUDIO
    TITLE "8:cjc037_1393"
    INDEX 01 00:38:37
  TRACK 27 AUDIO
    TITLE "0:"
    INDEX 01 00:40:01
  TRACK 28 AUDIO
    TITLE "9:cjc037_1394"
    INDEX 01 00:40:07
  TRACK 29 AUDIO
    TITLE "0:"
    INDEX 01 00:42:19
  TRACK 30 AUDIO
    TITLE "8:cjc037_1395"
    INDEX 01 00:44:60
  TRACK 31 AUDIO
    TITLE "0:"
    INDEX 01 00:46:29
  TRACK 32 AUDIO
    TITLE "9:cjc037_1396"
    INDEX 01 00:46:37
  TRACK 33 AUDIO
    TITLE "0:"
    INDEX 01 00:48:65
  TRACK 34 AUDIO
    TITLE "8:cjc037_1397"
    INDEX 01 00:51:24
  TRACK 35 AUDIO
    TITLE "0:"
    INDEX 01 00:52:65
  TRACK 36 AUDIO
    TITLE "9:cjc037_1398"
    INDEX 01 00:52:71
  TRACK 37 AUDIO
    TITLE "0:"
    INDEX 01 00:56:74
  TRACK 38 AUDIO
    TITLE "8:cjc037_1399"
    INDEX 01 00:59:34
  TRACK 39 AUDIO
    TITLE "0:"
    INDEX 01 01:01:05
  TRACK 40 AUDIO
    TITLE "9:cjc037_1400"
    INDEX 01 01:01:15
  TRACK 41 AUDIO
    TITLE "0:"
    INDEX 01 01:04:17
  TRACK 42 AUDIO
    TITLE "8:cjc037_1401"
    INDEX 01 01:06:53
  TRACK 43 AUDIO
    TITLE "0:"
    INDEX 01 01:08:23
  TRACK 44 AUDIO
    TITLE "9:cjc037_1402"
    INDEX 01 01:08:29
  TRACK 45 AUDIO
    TITLE "0:"
    INDEX 01 01:11:62
  TRACK 46 AUDIO
    TITLE "8:cjc037_1403"
    INDEX 01 01:14:23
  TRACK 47 AUDIO
    TITLE "0:"
    INDEX 01 01:15:68
  TRACK 48 AUDIO
    TITLE "9:cjc037_1404"
    INDEX 01 01:16:01
  TRACK 49 AUDIO
    TITLE "0:"
    INDEX 01 01:17:63
  TRACK 50 AUDIO
    TITLE "8:cjc037_1405"
    INDEX 01 01:20:24
  TRACK 51 AUDIO
    TITLE "0:"
    INDEX 01 01:21:65
  TRACK 52 AUDIO
    TITLE "9:cjc037_1406"
    INDEX 01 01:21:70
  TRACK 53 AUDIO
    TITLE "0:"
    INDEX 01 01:25:11
  TRACK 54 AUDIO
    TITLE "8:cjc037_1407"
    INDEX 01 01:27:48
  TRACK 55 AUDIO
    TITLE "0:"
    INDEX 01 01:29:15
  TRACK 56 AUDIO
    TITLE "9:cjc037_1408"
    INDEX 01 01:29:19
  TRACK 57 AUDIO
    TITLE "0:"
    INDEX 01 01:31:51
  TRACK 58 AUDIO
    TITLE "8:cjc037_1409"
    INDEX 01 01:34:10
  TRACK 59 AUDIO
    TITLE "0:"
    INDEX 01 01:35:47
  TRACK 60 AUDIO
    TITLE "9:cjc037_1410"
    INDEX 01 01:35:51
  TRACK 61 AUDIO
    TITLE "0:"
    INDEX 01 01:38:73
  TRACK 62 AUDIO
    TITLE "8:cjc037_1411"
    INDEX 01 01:41:34
  TRACK 63 AUDIO
    TITLE "0:"
    INDEX 01 01:42:71
  TRACK 64 AUDIO
    TITLE "9:cjc037_1412"
    INDEX 01 01:43:03
  TRACK 65 AUDIO
    TITLE "0:"
    INDEX 01 01:45:69
  TRACK 66 AUDIO
    TITLE "8:cjc037_1413"
    INDEX 01 01:48:28
  TRACK 67 AUDIO
    TITLE "0:"
    INDEX 01 01:49:67
  TRACK 68 AUDIO
    TITLE "9:cjc037_1414"
    INDEX 01 01:49:73
  TRACK 69 AUDIO
    TITLE "0:"
    INDEX 01 01:52:26
  TRACK 70 AUDIO
    TITLE "8:cjc037_1415"
    INDEX 01 01:54:62
  TRACK 71 AUDIO
    TITLE "0:"
    INDEX 01 01:56:32
  TRACK 72 AUDIO
    TITLE "9:cjc037_1416"
    INDEX 01 01:56:37
  TRACK 73 AUDIO
    TITLE "0:"
    INDEX 01 02:00:06
  TRACK 74 AUDIO
    TITLE "8:cjc037_1417"
    INDEX 01 02:02:42
  TRACK 75 AUDIO
    TITLE "0:"
    INDEX 01 02:04:12
  TRACK 76 AUDIO
    TITLE "9:cjc037_1418"
    INDEX 01 02:04:17
  TRACK 77 AUDIO
    TITLE "0:"
    INDEX 01 02:09:21
  TRACK 78 AUDIO
    TITLE "8:cjc037_1419"
    INDEX 01 02:11:55
  TRACK 79 AUDIO
    TITLE "0:"
    INDEX 01 02:13:26
  TRACK 80 AUDIO
    TITLE "9:cjc037_1420"
    INDEX 01 02:13:30
  TRACK 81 AUDIO
    TITLE "0:"
    INDEX 01 02:16:09
  TRACK 82 AUDIO
    TITLE "8:cjc037_1421"
    INDEX 01 02:18:45
  TRACK 83 AUDIO
    TITLE "0:"
    INDEX 01 02:20:14
  TRACK 84 AUDIO
    TITLE "9:cjc037_1422"
    INDEX 01 02:20:18
  TRACK 85 AUDIO
    TITLE "0:"
    INDEX 01 02:22:33
